<svg xmlns="http://www.w3.org/2000/svg" width="48" height="42.188" viewBox="0 0 48 42.188"><g transform="translate(-126 -1319)"><path d="M45.187,34.2V14.776l1.9-.709a1.406,1.406,0,0,0,0-2.634L24.492,2.995a1.412,1.412,0,0,0-.984,0L.914,11.433a1.406,1.406,0,0,0,0,2.634l9.363,3.5A26.612,26.612,0,0,0,8.531,28.219a1.406,1.406,0,0,0,1.929,1.305,20.362,20.362,0,0,1,6.509-1.305c2.967,0,6.123,2.48,6.152,2.5a1.406,1.406,0,0,0,1.757,0c.871-.7,3.674-2.5,6.153-2.5a20.529,20.529,0,0,1,6.509,1.305,1.406,1.406,0,0,0,1.929-1.305,26.806,26.806,0,0,0-1.746-10.655l4.652-1.737V34.2a4.591,4.591,0,0,0-1.84,2.065,10.52,10.52,0,0,0-.973,4.606v2.812a1.407,1.407,0,0,0,1.407,1.407h5.625A1.407,1.407,0,0,0,48,43.687V40.875a10.52,10.52,0,0,0-.972-4.606A4.6,4.6,0,0,0,45.187,34.2ZM24,5.814,42.574,12.75,24,19.686,5.426,12.75ZM36.645,26.271a21.247,21.247,0,0,0-5.614-.865A13.7,13.7,0,0,0,24,27.9a13.7,13.7,0,0,0-7.031-2.49,21.247,21.247,0,0,0-5.614.865,23.31,23.31,0,0,1,1.557-7.723l10.6,3.957a1.412,1.412,0,0,0,.984,0l10.6-3.957a23.31,23.31,0,0,1,1.557,7.723Zm8.542,16.01H42.375V40.875a7.811,7.811,0,0,1,.675-3.349c.36-.718.682-.87.731-.87s.372.152.731.87a7.811,7.811,0,0,1,.675,3.349Z" transform="translate(126 1316.094)" fill="#212121"/></g></svg>