<svg xmlns="http://www.w3.org/2000/svg" width="24" height="17.543" viewBox="0 0 24 17.543"><path d="M22.86,3.9a3.019,3.019,0,0,0-1.067-.672l-.288-.087-.1-.013c-.041-.011-.082-.019-.124-.025a.578.578,0,0,1-.087-.019l-.137-.012a.749.749,0,0,1-.12-.012,1.244,1.244,0,0,0-.188-.017H2.786a1.035,1.035,0,0,0-.318.028H2.4a1.155,1.155,0,0,0-.3.055l-.371.1a3.464,3.464,0,0,0-1.014.629.249.249,0,0,0-.1.1l-.084.084-.058.07A.744.744,0,0,0,.395,4.2L.279,4.32v.013A3,3,0,0,0-.25,6.019V17.59A2.919,2.919,0,0,0,.537,19.6l.071.1a2.982,2.982,0,0,0,2.112.888H20.754a3.043,3.043,0,0,0,3-3V6.019A2.982,2.982,0,0,0,22.86,3.9ZM12.087,11.98a.517.517,0,0,1-.647,0L2.789,4.941H20.71Zm-8.14,3.307a.96.96,0,0,0,1.325,1.386l4.087-3.9.867.7a2.244,2.244,0,0,0,1.453.537h.089a2.337,2.337,0,0,0,1.543-.588l.842-.68,4.124,3.933a.96.96,0,0,0,1.308-1.4l-3.911-3.738L21.827,6.56V17.593a1.032,1.032,0,0,1-.32.751,1.088,1.088,0,0,1-.753.32H2.769A1.067,1.067,0,0,1,2,18.317,1,1,0,0,1,1.7,17.59V6.561l6.153,5.006Z" transform="translate(0.25 -3.046)" fill="#fff"/></svg>