<svg xmlns="http://www.w3.org/2000/svg" width="24" height="24" viewBox="0 0 24 24"><path d="M18,6A12,12,0,1,0,30,18,12,12,0,0,0,18,6Zm1.745,21.837V24.884a1.665,1.665,0,0,0-.4-1.212A7.188,7.188,0,0,1,18.8,22.9l-.166-.25a.521.521,0,0,1-.078-.2.5.5,0,0,1,.418-.57l.753-.118c2.561-.375,3.572-1.684,3.972-2.716a4.336,4.336,0,0,0-.686-4.171,1.126,1.126,0,0,1-.212-1.069,3.715,3.715,0,0,0,.092-1.552,4.87,4.87,0,0,0-1.4.707l-.291.181a1.179,1.179,0,0,1-.611.184,1.575,1.575,0,0,1-.247-.022,1,1,0,0,1-.154-.023,8.077,8.077,0,0,0-2.185-.31H18a8.332,8.332,0,0,0-2.079.263l-.3.07a.84.84,0,0,1-.174.012,1.2,1.2,0,0,1-.656-.179l-.268-.165a4.874,4.874,0,0,0-1.42-.71,3.756,3.756,0,0,0,.1,1.571,1.119,1.119,0,0,1-.234,1.067,4.336,4.336,0,0,0-.665,4.166c.395,1.019,1.406,2.327,3.96,2.7l.759.118a.489.489,0,0,1,.2.077.5.5,0,0,1,.141.693l-.183.279a7.787,7.787,0,0,1-.528.75,1.64,1.64,0,0,0-.406,1.179v2.972a10,10,0,1,1,3.5,0Z" transform="translate(-6 -6)" fill="#212121"/></svg>