<svg xmlns="http://www.w3.org/2000/svg" width="48" height="43.312" viewBox="0 0 48 43.312"><g transform="translate(0 -2.344)"><path d="M45.187,18.844H28.15a10.8,10.8,0,0,0,3.256-7.594c0-3.323.77-4.365,1.441-4.9C33.878,5.524,35.775,5.156,39,5.156a1.406,1.406,0,0,0,0-2.812c-4.013,0-6.3.524-7.91,1.808-2.212,1.77-2.5,4.723-2.5,7.1,0,4.367-3.893,6.965-4.959,7.594H2.812A2.815,2.815,0,0,0,0,21.656V42.844a2.815,2.815,0,0,0,2.812,2.812H45.187A2.815,2.815,0,0,0,48,42.844V21.656A2.815,2.815,0,0,0,45.187,18.844Zm0,24H2.812V21.656H45.187C45.189,43.326,45.2,42.844,45.187,42.844Z" fill="#212121"/><path d="M9,36.844H7.5a1.406,1.406,0,1,0,0,2.812H9a1.406,1.406,0,1,0,0-2.812Z" fill="#212121"/><path d="M14.156,32.25a1.405,1.405,0,0,0-1.406-1.406h-1.5a1.406,1.406,0,1,0,0,2.812h1.5A1.405,1.405,0,0,0,14.156,32.25Z" fill="#212121"/><path d="M17.344,32.25a1.405,1.405,0,0,0,1.406,1.406h1.5a1.406,1.406,0,1,0,0-2.812h-1.5A1.405,1.405,0,0,0,17.344,32.25Z" fill="#212121"/><path d="M24.844,32.25a1.405,1.405,0,0,0,1.406,1.406h1.5a1.406,1.406,0,1,0,0-2.812h-1.5A1.405,1.405,0,0,0,24.844,32.25Z" fill="#212121"/><path d="M35.25,30.844h-1.5a1.406,1.406,0,0,0,0,2.812h1.5a1.406,1.406,0,0,0,0-2.812Z" fill="#212121"/><path d="M40.406,26.25A1.405,1.405,0,0,0,39,24.844H37.5a1.406,1.406,0,0,0,0,2.812H39A1.405,1.405,0,0,0,40.406,26.25Z" fill="#212121"/><path d="M30,27.656h1.5a1.406,1.406,0,0,0,0-2.812H30a1.406,1.406,0,0,0,0,2.812Z" fill="#212121"/><path d="M22.5,27.656H24a1.406,1.406,0,0,0,0-2.812H22.5a1.406,1.406,0,0,0,0,2.812Z" fill="#212121"/><path d="M15,27.656h1.5a1.406,1.406,0,0,0,0-2.812H15a1.406,1.406,0,1,0,0,2.812Z" fill="#212121"/><path d="M7.5,27.656H9a1.406,1.406,0,0,0,0-2.812H7.5a1.406,1.406,0,0,0,0,2.812Z" fill="#212121"/><path d="M40.5,36.844H39a1.406,1.406,0,0,0,0,2.812h1.5a1.406,1.406,0,0,0,0-2.812Z" fill="#212121"/><path d="M33,36.844H15a1.406,1.406,0,1,0,0,2.812H33a1.406,1.406,0,0,0,0-2.812Z" fill="#212121"/></g></svg>