<svg xmlns="http://www.w3.org/2000/svg" width="24" height="24" viewBox="0 0 24 24"><g transform="translate(-6 -6)"><path d="M6.343,30h6.382V14.112H6.343Zm4.51-14.017V28.129H8.215l0-12.146Z" fill="#ffffff"/><path d="M9.535,6h0a3.535,3.535,0,1,0,3.534,3.534A3.538,3.538,0,0,0,9.535,6ZM11.2,9.534A1.667,1.667,0,1,1,9.535,7.867,1.67,1.67,0,0,1,11.2,9.534Z" fill="#ffffff"/><path d="M29.981,19.127a5.968,5.968,0,0,0-5.948-5.485A6.267,6.267,0,0,0,20.488,14.7v-.592H14.351V30h6.38V21.337a1.441,1.441,0,1,1,2.883,0L23.62,30H30V19.268ZM18.866,21.34v6.79H16.222V15.984h2.4v1.883H20.1l.276-.431a4.183,4.183,0,0,1,3.542-1.929c.035,0,.061,0,.09,0a4.136,4.136,0,0,1,4.123,3.99v8.637H25.488l0-6.793a3.309,3.309,0,0,0-6.618,0Z" fill="#ffffff"/></g></svg>