<svg xmlns="http://www.w3.org/2000/svg" xmlns:xlink="http://www.w3.org/1999/xlink" width="38" height="38" viewBox="0 0 38 38"><defs><style>.a,.j{fill:#fff;}.a{stroke:#707070;}.b{clip-path:url(#a);}.c{fill:url(#b);}.d{fill:url(#c);}.e{fill:url(#d);}.f{fill:url(#e);}.g{fill:url(#f);}.h{fill:url(#g);}.i{opacity:0.5;}.i,.m{mix-blend-mode:overlay;isolation:isolate;}.k{fill:url(#h);}.l{fill:url(#i);}.m,.p{opacity:0.4;}.n{fill:url(#j);}.o{fill:url(#l);}.q{fill:url(#n);}</style><clipPath id="a"><rect class="a" width="38" height="38" transform="translate(589 1533)"/></clipPath><linearGradient id="b" x1="0.5" y1="-0.232" x2="0.5" y2="1.018" gradientUnits="objectBoundingBox"><stop offset="0" stop-color="#f3bc48"/><stop offset="0" stop-color="#f3bd47"/><stop offset="0" stop-color="#f3c444"/><stop offset="0" stop-color="#f4ca43"/><stop offset="1" stop-color="#bf5127"/></linearGradient><linearGradient id="c" x1="0.5" y1="-0.315" x2="0.5" y2="1.052" xlink:href="#b"/><linearGradient id="d" x1="0.5" y1="-0.376" x2="0.5" y2="1.292" gradientUnits="objectBoundingBox"><stop offset="0" stop-color="#faae32"/><stop offset="0.074" stop-color="#fab63e"/><stop offset="0.297" stop-color="#fbcd5f"/><stop offset="0.511" stop-color="#fcde76"/><stop offset="0.711" stop-color="#fce885"/><stop offset="0.88" stop-color="#fdec8a"/></linearGradient><linearGradient id="e" x1="0.5" y1="-0.081" x2="0.5" y2="1.169" gradientUnits="objectBoundingBox"><stop offset="0" stop-color="#ffc755"/><stop offset="0" stop-color="#fec853"/><stop offset="0" stop-color="#fdcf4e"/><stop offset="0" stop-color="#fdd34c"/><stop offset="1" stop-color="#c95a28"/></linearGradient><linearGradient id="f" x1="0.5" y1="-0.014" x2="0.5" y2="0.953" gradientUnits="objectBoundingBox"><stop offset="0.485" stop-color="#ffc755"/><stop offset="0.771" stop-color="#fec553"/><stop offset="0.874" stop-color="#fdc04c"/><stop offset="0.947" stop-color="#fcb840"/><stop offset="1" stop-color="#faae32"/></linearGradient><linearGradient id="g" x1="0.5" y1="0.089" x2="0.5" y2="1.052" gradientUnits="objectBoundingBox"><stop offset="0.001" stop-color="#b34b2d"/><stop offset="0.207" stop-color="#b44c2d"/><stop offset="0.281" stop-color="#b75330"/><stop offset="0.334" stop-color="#be5f34"/><stop offset="0.376" stop-color="#c8703b"/><stop offset="0.413" stop-color="#d48643"/><stop offset="0.445" stop-color="#e3a14e"/><stop offset="0.474" stop-color="#f5c15a"/><stop offset="0.486" stop-color="#ffd261"/><stop offset="0.979" stop-color="#fdee76"/></linearGradient><linearGradient id="h" x1="0.5" y1="0.023" x2="0.5" y2="0.986" gradientUnits="objectBoundingBox"><stop offset="0" stop-color="#cd7f35"/><stop offset="0.385" stop-color="#c97b33"/><stop offset="0.692" stop-color="#c0712f"/><stop offset="0.972" stop-color="#b06127"/><stop offset="1" stop-color="#ae5f27"/></linearGradient><linearGradient id="i" x1="0.5" y1="1.025" x2="0.5" y2="-0.15" gradientUnits="objectBoundingBox"><stop offset="0" stop-color="#cd7f35"/><stop offset="1" stop-color="#f1c169"/></linearGradient><linearGradient id="j" x1="0.5" y1="-0.627" x2="0.5" y2="1.368" gradientUnits="objectBoundingBox"><stop offset="0" stop-color="#eeb943"/><stop offset="0" stop-color="#eeba41"/><stop offset="0" stop-color="#eec13d"/><stop offset="0" stop-color="#eec63b"/><stop offset="1" stop-color="#ba4d27"/></linearGradient><linearGradient id="l" x1="0.5" y1="-0.014" x2="0.5" y2="0.953" gradientUnits="objectBoundingBox"><stop offset="0.018" stop-color="#fcf49e"/><stop offset="0.976" stop-color="#fddc64"/></linearGradient><linearGradient id="n" x1="0.5" y1="-0.267" x2="0.5" y2="1.386" xlink:href="#l"/></defs><g class="b" transform="translate(-589 -1533)"><g transform="translate(584.577 1522.853)"><path class="c" d="M29.907,10.575H18.038a1,1,0,0,0-.994.995v4.26a1,1,0,0,0,.994,1H29.907a1,1,0,0,0,.994-1V11.57A1,1,0,0,0,29.907,10.575Zm.546,5.311a.758.758,0,0,1-.755.755H18.247a.758.758,0,0,1-.755-.755V11.68a.758.758,0,0,1,.755-.755H29.7a.758.758,0,0,1,.755.755Z"/><path class="d" d="M29.7,10.925H18.247a.758.758,0,0,0-.755.755v4.206a.758.758,0,0,0,.755.755H29.7a.758.758,0,0,0,.755-.755V11.68A.758.758,0,0,0,29.7,10.925Zm-.123,2.052a.293.293,0,0,1-.292.292H18.662a.293.293,0,0,1-.292-.292v-.472a.294.294,0,0,1,.292-.293H29.283a.294.294,0,0,1,.292.293Z"/><path class="e" d="M29.7,10.925H18.247a.758.758,0,0,0-.755.755v4.206a.758.758,0,0,0,.755.755H29.7a.758.758,0,0,0,.755-.755V11.68A.758.758,0,0,0,29.7,10.925Zm-.123,2.052a.293.293,0,0,1-.292.292H18.662a.293.293,0,0,1-.292-.292v-.472a.294.294,0,0,1,.292-.293H29.283a.294.294,0,0,1,.292.293Z"/><circle class="f" cx="16.616" cy="16.616" r="16.616" transform="matrix(0.249, -0.969, 0.969, 0.249, 3.423, 42.335)"/><circle class="g" cx="16.15" cy="16.15" r="16.15" transform="matrix(0.994, -0.11, 0.11, 0.994, 5.816, 16.107)"/><circle class="h" cx="13.809" cy="13.809" r="13.809" transform="translate(9.841 16.565)"/><g class="i"><path class="j" d="M23.651,16.565a13.809,13.809,0,1,1-13.81,13.81,13.81,13.81,0,0,1,13.81-13.81Zm0-.117a13.891,13.891,0,1,0,5.42,1.095,13.845,13.845,0,0,0-5.42-1.095Z"/></g><circle class="k" cx="13.517" cy="13.517" r="13.517" transform="matrix(0.201, -0.98, 0.98, 0.201, 7.692, 40.898)"/><circle class="l" cx="13.283" cy="13.283" r="13.283" transform="translate(10.368 17.092)"/><g class="m"><path class="j" d="M23.651,14.342A15.982,15.982,0,1,1,17.41,15.6a15.929,15.929,0,0,1,6.241-1.26Zm0-.117A16.149,16.149,0,1,0,39.8,30.375a16.149,16.149,0,0,0-16.15-16.15Z"/></g><path class="n" d="M22.266,38.255V28l-1.76,1.564L18.086,26.9,22.8,22.539h3.246V38.255Z"/><path class="g" d="M25.639,37.845H22.676V26.509l-2.333,2.255-1.681-1.836,4.3-3.98h2.676Z"/><path class="o" d="M25.639,37.845H22.676V26.509l-2.333,2.255-1.681-1.836,4.3-3.98h2.676Z"/><path class="g" d="M25.405,37.845H22.968V26.8L20.527,28.98l-1.61-1.744,4.222-4h2.266Z"/><g class="p"><path class="q" d="M23.281,32.891q1.075,0,2.124-.065V23.241H23.139l-4.222,4,1.61,1.744L22.968,26.8v6.087Z"/></g></g></g></svg>