<svg xmlns="http://www.w3.org/2000/svg" width="24" height="17.019" viewBox="0 0 24 17.019"><path d="M2253.751-789.816a4.912,4.912,0,0,1-3.077-1.228l.228-1.074.01-.04c.2-1.144.851-3.063,2.839-3.063a2.708,2.708,0,0,1,2.705,2.705,2.714,2.714,0,0,1-2.705,2.7Zm0-8.145c-2.54,0-4.509,1.651-5.31,4.366a22.375,22.375,0,0,1-2.69-5.892h-2.734v7.115a2.551,2.551,0,0,1-2.546,2.546,2.55,2.55,0,0,1-2.545-2.546v-7.115h-2.735v7.115a5.293,5.293,0,0,0,5.275,5.3,5.308,5.308,0,0,0,5.285-5.3v-1.193a17.1,17.1,0,0,0,1.974,3.222l-1.675,7.875h2.8l1.213-5.713a6.736,6.736,0,0,0,3.689,1.109,5.46,5.46,0,0,0,5.44-5.454,5.447,5.447,0,0,0-5.44-5.435Z" transform="translate(-2235.191 799.487)" fill="#fff"/></svg>