<svg xmlns="http://www.w3.org/2000/svg" width="48" height="44.628" viewBox="0 0 48 44.628"><g transform="translate(0 -1.686)"><path d="M43.823,10.118a5.331,5.331,0,0,0-1.592-.249h-7.09V8.3a6.624,6.624,0,0,0-6.616-6.617h-9.05A6.625,6.625,0,0,0,12.858,8.3V9.869H5.769a5.333,5.333,0,0,0-1.593.249A5.756,5.756,0,0,0,0,15.643V40.565a5.756,5.756,0,0,0,5.749,5.749h36.5A5.756,5.756,0,0,0,48,40.565V15.643A5.756,5.756,0,0,0,43.823,10.118Zm-8.771,20.9v2.59a.5.5,0,0,1-.495.494H32.94a.494.494,0,0,1-.494-.494V27.95a.494.494,0,0,1,.494-.494h1.617a.5.5,0,0,1,.495.494v3.071Zm-.495-6.35H32.94a3.283,3.283,0,0,0-3.279,3.279v1.831a18.952,18.952,0,0,1-3.248.282H21.587a18.943,18.943,0,0,1-3.248-.282V27.95a3.283,3.283,0,0,0-3.279-3.279H13.442a3.27,3.27,0,0,0-2.9,1.789,18.8,18.8,0,0,1-7.21-10.717,2.474,2.474,0,0,1,1.707-2.966,2.509,2.509,0,0,1,.734-.123H42.23a2.521,2.521,0,0,1,.727.12,2.492,2.492,0,0,1,1.256.847,2.463,2.463,0,0,1,.458,2.122A18.8,18.8,0,0,1,37.462,26.46,3.271,3.271,0,0,0,34.557,24.671Zm-19,5.84v3.1a.494.494,0,0,1-.494.494H13.442a.494.494,0,0,1-.494-.494V27.95a.5.5,0,0,1,.494-.494H15.06a.5.5,0,0,1,.494.494v2.561ZM15.644,8.3a3.836,3.836,0,0,1,3.831-3.832h9.05A3.836,3.836,0,0,1,32.356,8.3V9.869H15.644ZM45.215,40.565a2.968,2.968,0,0,1-2.964,2.964H5.749a2.968,2.968,0,0,1-2.964-2.964V21.8a21.862,21.862,0,0,0,5.4,6.359,21.424,21.424,0,0,0,1.976,1.378v4.076a3.284,3.284,0,0,0,3.279,3.28H15.06a3.284,3.284,0,0,0,3.279-3.28V32.586a21.237,21.237,0,0,0,3.248.262h4.826a21.237,21.237,0,0,0,3.248-.262v1.025a3.284,3.284,0,0,0,3.279,3.28h1.617a3.284,3.284,0,0,0,3.28-3.28V29.534a21.222,21.222,0,0,0,1.976-1.377,21.866,21.866,0,0,0,5.4-6.36Z" fill="#fff"/></g></svg>